Coordinates
version=1
nRows=19
nColumns=34
inDegrees=yes

Units are S.I. units (second, meters, Newtons, ...)
If the header above contains a line with 'inDegrees', this indicates whether rotational values are in degrees (yes) or radians (no).

endheader
time	pelvis_tilt	pelvis_list	pelvis_rotation	pelvis_tx	pelvis_ty	pelvis_tz	hip_flexion_r	hip_adduction_r	hip_rotation_r	knee_angle_r	ankle_angle_r	subtalar_angle_r	mtp_angle_r	hip_flexion_l	hip_adduction_l	hip_rotation_l	knee_angle_l	ankle_angle_l	subtalar_angle_l	mtp_angle_l	lumbar_extension	lumbar_bending	lumbar_rotation	arm_flex_r	arm_add_r	arm_rot_r	elbow_flex_r	pro_sup_r	arm_flex_l	arm_add_l	arm_rot_l	elbow_flex_l	pro_sup_l
      6.41666670	     -4.45691177	      3.05991412	     -1.47601713	      0.09397074	      0.90322822	     -0.11541385	      2.55283613	     -4.15716823	     -1.85628286	      1.50808476	      2.70400150	     -9.98955197	      0.00000000	      1.09274917	     -2.09041482	     -4.89963899	      0.00000000	      3.75088965	     -0.50814760	      0.00000000	      2.98923563	     -1.09357547	      8.29892820	     84.47271426	     13.32805524	     50.13160672	    140.45608959	    114.81635150	     98.77797199	     14.51147241	     61.93478688	    122.22923321	    108.44267969
      6.43333330	     -4.61076899	      3.08008486	     -1.54847075	      0.09304479	      0.90179249	     -0.11496438	      2.75652816	     -4.15094244	     -1.71619229	      1.55453777	      3.02931109	    -10.07348595	      0.00000000	      1.24692848	     -2.08354823	     -4.91911892	      0.00000000	      4.06760930	     -0.54478950	      0.00000000	      3.19220292	     -1.02022268	      8.52208837	     84.64670046	     13.28648775	     49.98794058	    141.16355906	    114.89350026	     98.69002746	     14.36050221	     61.32173906	    123.31092559	    108.59735973
      6.45000000	     -4.60560756	      3.09161646	     -1.54869442	      0.09433240	      0.90284821	     -0.11496891	      2.75418270	     -4.14366756	     -1.71394523	      1.56153931	      3.02829891	    -10.07242089	      0.00000000	      1.25472886	     -2.08807950	     -4.91851902	      0.00000000	      4.06507961	     -0.54310757	      0.00000000	      3.19206824	     -1.01971059	      8.52205101	     84.64380791	     13.28804195	     49.98922592	    141.16416577	    114.89430742	     98.68738771	     14.35561753	     61.32285420	    123.30951145	    108.59916979
      6.46666670	     -4.61469344	      3.10284353	     -1.55094886	      0.09434454	      0.90524109	     -0.11506702	      2.74912489	     -4.14269082	     -1.71319881	      1.56503157	      3.02849017	    -10.07238863	      0.00000000	      1.25702766	     -2.09442784	     -4.91869410	      0.00000000	      4.06491006	     -0.54302480	      0.00000000	      3.19437192	     -1.01695442	      8.52106556	     84.64241145	     13.28943747	     49.99015929	    141.16549355	    114.89451070	     98.68584057	     14.35417775	     61.32455361	    123.30822617	    108.59971811
      6.48333330	     -4.59231002	      3.04752055	     -1.57871235	      0.09350451	      0.90316440	     -0.11529912	      2.67023919	     -4.06614948	     -1.52780117	      1.49232456	      3.12242061	    -10.01769012	      0.00000000	      1.23125348	     -2.14977565	     -5.13395308	      0.00000000	      4.03930859	     -0.46841972	      0.00000000	      3.33252275	     -0.87550666	      8.11630525	     84.00385233	     13.51565464	     50.42739707	    141.22634620	    115.01030974	     98.20799300	     13.54565933	     62.22158245	    122.53095272	    108.90675052
      6.50000000	     -4.74759440	      3.09903533	     -1.51442605	      0.09257082	      0.90306349	     -0.11512139	      2.83045163	     -4.11778983	     -1.52377972	      1.47856437	      3.04104858	     -9.94780454	      0.00000000	      1.41917932	     -2.09833669	     -4.99033408	      0.00000000	      4.02125331	     -0.32540219	      0.00000000	      3.26149990	     -1.12841626	      8.26954541	     84.03479687	     12.94090141	     50.46968107	    140.43775328	    115.06239470	     98.62860509	     13.40189863	     62.15663305	    122.42262909	    109.00831057
      6.51666670	     -4.82236810	      3.10371277	     -1.45735322	      0.09289737	      0.90457930	     -0.11506950	      2.86918870	     -4.12161477	     -1.53293775	      1.43896546	      3.03881986	     -9.94776000	      0.00000000	      1.53220458	     -2.09218404	     -5.01569548	      0.00000000	      4.02576322	     -0.32933838	      0.00000000	      3.06103768	     -1.09569423	      8.30125877	     83.98900213	     12.90262233	     50.48855028	    140.38118156	    115.06763485	     98.59725788	     13.39022227	     62.19409914	    122.38426099	    109.02127405
      6.53333330	     -4.75026359	      3.06544056	     -1.40843052	      0.09382437	      0.90643906	     -0.11526275	      2.70739307	     -4.08473830	     -1.71101287	      1.34764936	      2.81532779	     -9.84112195	      0.00000000	      1.46490299	     -2.12646704	     -5.15311382	      0.00000000	      3.88141795	     -0.20933727	      0.00000000	      3.02081958	     -0.96268332	      8.65061975	     83.66557680	     12.34665364	     50.91678892	    139.08279830	    115.17463351	     98.36656209	     13.29169551	     62.88940898	    121.54143968	    109.26806728
      6.55000000	     -4.80066710	      3.07771817	     -1.39131607	      0.09359003	      0.90514972	     -0.11474973	      2.74801950	     -4.08972185	     -1.72088949	      1.32769154	      2.80569281	     -9.83633534	      0.00000000	      1.53182362	     -2.10967686	     -5.15544438	      0.00000000	      3.87121844	     -0.19863929	      0.00000000	      2.87024372	     -0.92536048	      8.67668655	     83.63763497	     12.34538755	     50.92580172	    139.06463872	    115.17736114	     98.33267074	     13.24125516	     62.93593401	    121.45637273	    109.28086080
      6.56666670	     -4.74851196	      3.08633210	     -1.37259643	      0.09389928	      0.90288539	     -0.11514396	      2.68728574	     -4.09514815	     -1.72853970	      1.38824547	      2.78490144	     -9.82953448	      0.00000000	      1.45714292	     -2.09313837	     -5.16529999	      0.00000000	      3.85517857	     -0.19322789	      0.00000000	      3.02895113	     -0.88294742	      8.67862758	     83.67065054	     12.36984998	     50.91788681	    139.07224716	    115.17888538	     98.37413237	     13.31282646	     62.91956337	    121.46235249	    109.28851987
      6.58333330	     -4.77961666	      3.09018534	     -1.37285024	      0.09449099	      0.90453746	     -0.11501492	      2.68370377	     -4.09004824	     -1.73089266	      1.39009025	      2.78238456	     -9.82898869	      0.00000000	      1.45786657	     -2.09045869	     -5.16692565	      0.00000000	      3.85276951	     -0.19233011	      0.00000000	      3.01523100	     -0.88192982	      8.67846436	     83.67399964	     12.36621836	     50.91296062	    139.06982765	    115.17887275	     98.37367495	     13.31051604	     62.91815269	    121.45729022	    109.28943856
      6.60000000	     -4.84453396	      3.10081331	     -1.39961493	      0.09455269	      0.90544261	     -0.11436480	      2.77217985	     -4.09626413	     -1.74819227	      1.33685629	      2.76222401	     -9.82234350	      0.00000000	      1.51957332	     -2.07889233	     -5.18555075	      0.00000000	      3.83013911	     -0.18182759	      0.00000000	      2.82892925	     -0.82671096	      8.62152602	     83.67682171	     12.36552644	     50.88995540	    139.04684962	    115.17874493	     98.31567694	     13.29994281	     62.95737832	    121.37792490	    109.29902444
      6.61666670	     -4.72345650	      3.01895930	     -1.43587252	      0.09480595	      0.90680403	     -0.11434588	      2.71314947	     -4.01135530	     -1.88934202	      1.46089794	      2.55545758	     -9.78157019	      0.00000000	      1.37542624	     -2.17037321	     -5.36837567	      0.00000000	      3.66923430	     -0.15104074	      0.00000000	      2.81604083	     -0.85773898	      8.28945603	     83.59042464	     13.02184255	     51.10827822	    139.20506626	    115.19748182	     97.87353243	     14.15146849	     63.15470475	    121.54270773	    109.35424828
      6.63333330	     -4.71820460	      3.01703318	     -1.41710624	      0.09445308	      0.90412271	     -0.11385694	      2.72614127	     -4.00437269	     -1.88960959	      1.45080171	      2.55425588	     -9.78031658	      0.00000000	      1.35271058	     -2.16658409	     -5.36879744	      0.00000000	      3.66849228	     -0.14931311	      0.00000000	      2.82024554	     -0.86035104	      8.29319303	     83.59349223	     13.02668134	     51.10830501	    139.20638294	    115.19786994	     97.87391441	     14.15066805	     63.15396112	    121.54257368	    109.35527851
      6.65000000	     -4.68039427	      3.03397199	     -1.38938701	      0.09498259	      0.90367030	     -0.11386352	      2.67368514	     -4.01026659	     -1.89837562	      1.47154678	      2.55077057	     -9.78155146	      0.00000000	      1.29400312	     -2.16172002	     -5.36308719	      0.00000000	      3.66834343	     -0.13403528	      0.00000000	      2.96308670	     -0.80052032	      8.28962486	     83.65280792	     13.11943617	     51.10103535	    139.25577471	    115.19973612	     97.90022048	     14.17358900	     63.15478029	    121.52083121	    109.36303365
      6.66666670	     -4.68666901	      3.03752608	     -1.38701183	      0.09482962	      0.90426048	     -0.11398165	      2.67544615	     -4.00938710	     -1.89873459	      1.46975109	      2.55124498	     -9.78186151	      0.00000000	      1.28931322	     -2.16568850	     -5.36302613	      0.00000000	      3.66891513	     -0.13388307	      0.00000000	      2.96359717	     -0.80090565	      8.29102782	     83.65408690	     13.12126119	     51.10052224	    139.25700012	    115.19976531	     97.90060965	     14.17103760	     63.15498540	    121.51904284	    109.36324079
      6.68333330	     -4.71892137	      3.00064422	     -1.36578074	      0.09410159	      0.90272816	     -0.11444166	      2.67730478	     -3.96231936	     -1.98515063	      1.34902187	      2.69217733	     -9.87060958	      0.00000000	      1.31513274	     -2.21664936	     -5.27175651	      0.00000000	      3.85123377	     -0.06887613	      0.00000000	      3.11856956	     -0.52274065	      8.34676726	     83.97230495	     13.34096759	     50.88208293	    139.80742279	    115.19854009	     98.04923603	     13.46582578	     63.14094560	    121.06112380	    109.41453719
      6.70000000	     -4.69935961	      2.98918312	     -1.36295330	      0.09553005	      0.90545673	     -0.11431527	      2.63873075	     -3.95031373	     -1.97733110	      1.41351119	      2.67548308	     -9.85687776	      0.00000000	      1.23726473	     -2.24260832	     -5.27641028	      0.00000000	      3.84555762	     -0.05926487	      0.00000000	      3.21177191	     -0.57845401	      8.30542617	     83.99217359	     13.40251268	     50.88051955	    139.84794282	    115.19955649	     98.03188309	     13.45300747	     63.16537810	    121.01920549	    109.42374082
      6.71666670	     -4.72082986	      2.98404487	     -1.36326484	      0.09473384	      0.90523804	     -0.11424467	      2.63073082	     -3.95269864	     -1.97791845	      1.41639542	      2.67549271	     -9.85693820	      0.00000000	      1.22753491	     -2.24078379	     -5.27698109	      0.00000000	      3.84555252	     -0.05921902	      0.00000000	      3.20995071	     -0.57948209	      8.30476410	     83.99138884	     13.40176143	     50.88030032	    139.84823676	    115.19957080	     98.03114526	     13.45150945	     63.16563942	    121.01825047	    109.42389623
